<svg width="24" height="22" viewBox="0 0 24 22" fill="none" xmlns="http://www.w3.org/2000/svg">
<path d="M12 17.4C13.5 17.4 14.7752 16.8752 15.8256 15.8256C16.8752 14.7752 17.4 13.5 17.4 12C17.4 10.5 16.8752 9.2248 15.8256 8.1744C14.7752 7.1248 13.5 6.6 12 6.6C10.5 6.6 9.2248 7.1248 8.1744 8.1744C7.1248 9.2248 6.6 10.5 6.6 12C6.6 13.5 7.1248 14.7752 8.1744 15.8256C9.2248 16.8752 10.5 17.4 12 17.4ZM12 16.2L10.68 13.32L7.8 12L10.68 10.68L12 7.8L13.32 10.68L16.2 12L13.32 13.32L12 16.2ZM2.4 21.6C1.74 21.6 1.1752 21.3652 0.7056 20.8956C0.2352 20.4252 0 19.86 0 19.2V4.8C0 4.14 0.2352 3.5752 0.7056 3.1056C1.1752 2.6352 1.74 2.4 2.4 2.4H6.18L8.4 0H15.6L17.82 2.4H21.6C22.26 2.4 22.8252 2.6352 23.2956 3.1056C23.7652 3.5752 24 4.14 24 4.8V19.2C24 19.86 23.7652 20.4252 23.2956 20.8956C22.8252 21.3652 22.26 21.6 21.6 21.6H2.4Z" fill="#0F2224"/>
</svg>
