<svg width="40" height="40" viewBox="0 0 40 40" fill="none" xmlns="http://www.w3.org/2000/svg">
<g clip-path="url(#clip0_0_3)">
<mask id="mask0_0_3" style="mask-type:luminance" maskUnits="userSpaceOnUse" x="0" y="0" width="40" height="40">
<path d="M40 0H0V40H40V0Z" fill="white"/>
</mask>
<g mask="url(#mask0_0_3)">
<path d="M20.5345 0.0136853C19.8034 -0.0128308 19.0663 -0.000464123 18.3294 0.0477376C4.07747 0.980094 -4.73893 17.4605 2.70092 29.8434C4.41428 32.6952 6.97357 36.1358 10.2311 37.4371C13.7209 38.8312 16.8606 40.1277 21.1028 39.9909C23.4153 39.9165 25.915 39.1857 27.9907 38.3564C28.6234 38.1038 30.7732 36.5881 31.3324 36.7277C33.1233 37.1749 34.9725 38.1285 36.7314 38.714C37.6478 39.0191 38.3516 39.6838 39.2149 38.714C39.6914 38.1788 39.0667 37.3052 38.8625 36.7958C38.2962 35.3818 37.4774 33.695 37.2257 32.1874C37.1503 31.7345 36.7996 31.4445 36.7996 30.9103C36.7996 30.4596 38.3762 28.1068 38.6466 27.4314C39.6979 24.8067 39.9991 21.7743 39.9991 18.8502C39.9991 11.3052 33.9541 3.52167 26.9279 1.18281C24.8846 0.502565 22.7279 0.0932335 20.5345 0.0136853ZM20.2901 7.38032C20.8516 7.38094 21.4152 7.43279 21.9554 7.5676C26.5469 8.71395 28.988 10.6937 31.5426 14.9456C32.2019 16.0426 32.5372 17.8254 32.5372 19.0602C32.5372 21.2831 32.2088 23.0978 31.5426 25.0931C30.2665 28.9166 24.9688 32.4057 20.9608 32.5392C19.0636 32.6024 16.9754 32.298 15.2777 31.6199C14.7519 31.4098 13.7681 30.4848 13.2147 30.4848C12.0549 30.4848 8.65593 32.8723 7.95781 31.4779C7.64663 30.8564 9.8354 27.5856 9.59454 26.8638C9.03118 25.1761 7.80212 24.0038 7.60546 22.0399C6.88462 14.8412 11.4685 8.35761 18.6137 7.4995C19.1662 7.43314 19.7287 7.37969 20.2901 7.38032Z" fill="url(#paint0_linear_0_3)"/>
</g>
</g>
<defs>
<linearGradient id="paint0_linear_0_3" x1="-0.5" y1="19.5" x2="41" y2="20.5" gradientUnits="userSpaceOnUse">
<stop stop-color="#60C4BE"/>
<stop offset="1" stop-color="#0F2224"/>
</linearGradient>
<clipPath id="clip0_0_3">
<rect width="40" height="40" fill="white"/>
</clipPath>
</defs>
</svg>
