<svg width="28" height="28" viewBox="0 0 28 28" fill="none" xmlns="http://www.w3.org/2000/svg">
<path d="M14.3741 0.00957969C13.8624 -0.00898155 13.3464 -0.000324886 12.8306 0.0334163C2.85423 0.686065 -3.31725 12.2224 1.89065 20.8904C3.08999 22.8866 4.8815 25.2951 7.16174 26.206C9.60463 27.1818 11.8024 28.0894 14.772 27.9936C16.3907 27.9415 18.1405 27.43 19.5935 26.8495C20.0364 26.6727 21.5412 25.6116 21.9327 25.7094C23.1863 26.0224 24.4807 26.6899 25.712 27.0998C26.3535 27.3134 26.8461 27.7787 27.4504 27.0998C27.784 26.7252 27.3467 26.1137 27.2037 25.7571C26.8073 24.7673 26.2342 23.5865 26.058 22.5312C26.0052 22.2141 25.7597 22.0111 25.7597 21.6372C25.7597 21.3217 26.8633 19.6748 27.0526 19.202C27.7886 17.3647 27.9994 15.242 27.9994 13.1952C27.9994 7.91367 23.7679 2.46517 18.8496 0.827967C17.4192 0.351796 15.9095 0.0652635 14.3741 0.00957969ZM14.203 5.16623C14.5962 5.16666 14.9907 5.20295 15.3687 5.29732C18.5829 6.09977 20.2916 7.4856 22.0798 10.4619C22.5413 11.2298 22.7761 12.4778 22.7761 13.3421C22.7761 14.8982 22.5461 16.1684 22.0798 17.5652C21.1866 20.2416 17.4781 22.684 14.6725 22.7774C13.3445 22.8217 11.8828 22.6086 10.6944 22.1339C10.3264 21.9868 9.63769 21.3394 9.25027 21.3394C8.43842 21.3394 6.05915 23.0106 5.57047 22.0345C5.35264 21.5995 6.88478 19.3099 6.71618 18.8047C6.32183 17.6233 5.46148 16.8027 5.32382 15.4279C4.81923 10.3889 8.02796 5.85033 13.0296 5.24965C13.4163 5.2032 13.8101 5.16578 14.203 5.16623Z" fill="#E8E8E8"/>
</svg>
