<svg width="19" height="5" viewBox="0 0 19 5" fill="none" xmlns="http://www.w3.org/2000/svg">
<path d="M14 2.33333C14 1.71449 14.2458 1.121 14.6834 0.683418C15.121 0.245833 15.7145 0 16.3333 0C16.9522 0 17.5457 0.245833 17.9832 0.683418C18.4208 1.121 18.6667 1.71449 18.6667 2.33333C18.6667 2.95217 18.4208 3.54566 17.9832 3.98325C17.5457 4.42083 16.9522 4.66667 16.3333 4.66667C15.7145 4.66667 15.121 4.42083 14.6834 3.98325C14.2458 3.54566 14 2.95217 14 2.33333ZM7 2.33333C7 1.71449 7.24583 1.121 7.68342 0.683418C8.121 0.245833 8.71449 0 9.33333 0C9.95217 0 10.5457 0.245833 10.9832 0.683418C11.4208 1.121 11.6667 1.71449 11.6667 2.33333C11.6667 2.95217 11.4208 3.54566 10.9832 3.98325C10.5457 4.42083 9.95217 4.66667 9.33333 4.66667C8.71449 4.66667 8.121 4.42083 7.68342 3.98325C7.24583 3.54566 7 2.95217 7 2.33333ZM0 2.33333C0 1.71449 0.245833 1.121 0.683417 0.683418C1.121 0.245833 1.71449 0 2.33333 0C2.95217 0 3.54566 0.245833 3.98325 0.683418C4.42083 1.121 4.66667 1.71449 4.66667 2.33333C4.66667 2.95217 4.42083 3.54566 3.98325 3.98325C3.54566 4.42083 2.95217 4.66667 2.33333 4.66667C1.71449 4.66667 1.121 4.42083 0.683417 3.98325C0.245833 3.54566 0 2.95217 0 2.33333Z" fill="#262626"/>
</svg>
