<svg width="24" height="24" viewBox="0 0 24 24" fill="none" xmlns="http://www.w3.org/2000/svg">
<g clip-path="url(#clip0_9_714)">
<path d="M23.3175 9.83681C23.4574 10.6423 23.5272 11.4583 23.526 12.2758C23.526 15.9268 22.221 19.0138 19.95 21.1033H19.953C17.967 22.9378 15.237 23.9998 12 23.9998C8.8174 23.9998 5.76516 22.7355 3.51472 20.4851C1.26428 18.2347 0 15.1824 0 11.9998C0 8.81722 1.26428 5.76497 3.51472 3.51453C5.76516 1.2641 8.8174 -0.000184733 12 -0.000184733C14.9789 -0.0350723 17.8558 1.08406 20.028 3.12282L16.602 6.54882C15.3636 5.36828 13.7107 4.7218 12 4.74882C8.8695 4.74882 6.21 6.86082 5.262 9.70481C4.75936 11.1951 4.75936 12.8091 5.262 14.2993H5.2665C6.219 17.1388 8.874 19.2508 12.0045 19.2508C13.6215 19.2508 15.0105 18.8368 16.0875 18.1048H16.083C16.7084 17.6905 17.2433 17.1538 17.6555 16.5271C18.0678 15.9004 18.3487 15.1966 18.4815 14.4583H12V9.83832L23.3175 9.83681Z" fill="#545454"/>
</g>
<defs>
<clipPath id="clip0_9_714">
<rect width="24" height="24" fill="white"/>
</clipPath>
</defs>
</svg>
