<svg width="18" height="22" viewBox="0 0 18 22" fill="none" xmlns="http://www.w3.org/2000/svg">
<path d="M0 18.6229C0.0195327 17.1786 0.620359 15.7999 1.67249 14.785C2.72462 13.7701 4.14346 13.2007 5.62204 13.2H12.378C13.8565 13.2007 15.2754 13.7701 16.3275 14.785C17.3796 15.7999 17.9805 17.1786 18 18.6229C15.5305 20.7969 12.3242 22 9 22C5.6758 22 2.46946 20.7969 0 18.6229ZM14.0669 4.94998C14.0669 5.929 13.7698 6.88602 13.213 7.70004C12.6562 8.51406 11.8649 9.14852 10.939 9.52317C10.0132 9.89782 8.99438 9.99585 8.01149 9.80485C7.0286 9.61385 6.12576 9.14241 5.41714 8.45015C4.70851 7.75788 4.22593 6.87588 4.03043 5.91568C3.83492 4.95547 3.93526 3.9602 4.31876 3.05571C4.70227 2.15121 5.35171 1.37813 6.18496 0.834222C7.01822 0.290311 7.99786 0 9 0C10.3438 0 11.6326 0.521515 12.5829 1.44982C13.5331 2.37812 14.0669 3.63716 14.0669 4.94998Z" fill="#FAFAFA"/>
</svg>
