<svg width="32" height="24" viewBox="0 0 32 24" fill="none" xmlns="http://www.w3.org/2000/svg">
<path d="M0.855114 24V17.8636C0.855114 16 1.18466 14.0227 1.84375 11.9318C2.52557 9.81818 3.50284 7.78409 4.77557 5.82955C6.07102 3.85227 7.62784 2.13636 9.44602 0.681816L13.8097 4.22727C12.3778 6.27273 11.1278 8.40909 10.0597 10.6364C9.0142 12.8409 8.49148 15.2045 8.49148 17.7273V24H0.855114ZM18.3097 24V17.8636C18.3097 16 18.6392 14.0227 19.2983 11.9318C19.9801 9.81818 20.9574 7.78409 22.2301 5.82955C23.5256 3.85227 25.0824 2.13636 26.9006 0.681816L31.2642 4.22727C29.8324 6.27273 28.5824 8.40909 27.5142 10.6364C26.4688 12.8409 25.946 15.2045 25.946 17.7273V24H18.3097Z" fill="#C7C7C7"/>
</svg>
